HIERARCHY
ROOT Hips
{
    OFFSET   0.000000   0.000000   0.000000
    CHANNELS 6 Xposition Yposition Zposition Zrotation Xrotation Yrotation
    JOINT Chest
    {
        OFFSET   0.000000   8.007240   0.000000
        CHANNELS 3 Zrotation Xrotation Yrotation
        JOINT Chest2
        {
            OFFSET   0.000000  22.077100   0.000000
            CHANNELS 3 Zrotation Xrotation Yrotation
            JOINT Neck
            {
                OFFSET   0.000000  23.254800   0.000000
                CHANNELS 3 Zrotation Xrotation Yrotation
                JOINT Head
                {
                    OFFSET   0.000000  14.370000   1.956600
                    CHANNELS 3 Zrotation Xrotation Yrotation
                    End Site
                    {
                        OFFSET   0.000000  19.566000   0.000000
                    }
                }
            }
            JOINT LeftCollar
            {
                OFFSET   3.911900  19.017000  -0.467064
                CHANNELS 3 Zrotation Xrotation Yrotation
                JOINT LeftShoulder
                {
                    OFFSET  10.383700   0.000000   0.000000
                    CHANNELS 3 Zrotation Xrotation Yrotation
                    JOINT LeftElbow
                    {
                        OFFSET  26.662100   0.001476   0.000517
                        CHANNELS 3 Zrotation Xrotation Yrotation
                        JOINT LeftWrist
                        {
                            OFFSET  28.869000  -0.000025  -0.000106
                            CHANNELS 3 Zrotation Xrotation Yrotation
                            JOINT LeftFinger0
                            {
                                OFFSET   2.044660  -2.323460   3.252850
                                CHANNELS 3 Zrotation Xrotation Yrotation
                                JOINT LeftFinger01
                                {
                                    OFFSET   3.088130   0.000000   0.000000
                                    CHANNELS 3 Zrotation Xrotation Yrotation
                                    JOINT LeftFinger02
                                    {
                                        OFFSET   2.639460   0.000000   0.000000
                                        CHANNELS 3 Zrotation Xrotation Yrotation
                                        End Site
                                        {
                                            OFFSET   2.582190   0.000000   0.000000
                                        }
                                    }
                                }
                            }
                            JOINT LeftFinger1
                            {
                                OFFSET   8.364480   0.000000   3.252850
                                CHANNELS 3 Zrotation Xrotation Yrotation
                                JOINT LeftFinger11
                                {
                                    OFFSET   4.646930   0.000000   0.000000
                                    CHANNELS 3 Zrotation Xrotation Yrotation
                                    JOINT LeftFinger12
                                    {
                                        OFFSET   2.323460   0.000000   0.000000
                                        CHANNELS 3 Zrotation Xrotation Yrotation
                                        End Site
                                        {
                                            OFFSET   2.273050   0.000000   0.000000
                                        }
                                    }
                                }
                            }
                            JOINT LeftFinger2
                            {
                                OFFSET   8.364490   0.000015   1.078090
                                CHANNELS 3 Zrotation Xrotation Yrotation
                                JOINT LeftFinger21
                                {
                                    OFFSET   5.111620   0.000000   0.000000
                                    CHANNELS 3 Zrotation Xrotation Yrotation
                                    JOINT LeftFinger22
                                    {
                                        OFFSET   2.788160   0.000016   0.000000
                                        CHANNELS 3 Zrotation Xrotation Yrotation
                                        End Site
                                        {
                                            OFFSET   2.727660   0.000000   0.000000
                                        }
                                    }
                                }
                            }
                            JOINT LeftFinger3
                            {
                                OFFSET   7.899780   0.000017  -1.078090
                                CHANNELS 3 Zrotation Xrotation Yrotation
                                JOINT LeftFinger31
                                {
                                    OFFSET   4.646930   0.000000   0.000000
                                    CHANNELS 3 Zrotation Xrotation Yrotation
                                    JOINT LeftFinger32
                                    {
                                        OFFSET   2.323470   0.000000   0.000000
                                        CHANNELS 3 Zrotation Xrotation Yrotation
                                        End Site
                                        {
                                            OFFSET   2.273050   0.000000   0.000000
                                        }
                                    }
                                }
                            }
                            JOINT LeftFinger4
                            {
                                OFFSET   7.435090   0.000000  -3.252850
                                CHANNELS 3 Zrotation Xrotation Yrotation
                                JOINT LeftFinger41
                                {
                                    OFFSET   3.717550   0.000000   0.000000
                                    CHANNELS 3 Zrotation Xrotation Yrotation
                                    JOINT LeftFinger42
                                    {
                                        OFFSET   1.858770   0.000000   0.000000
                                        CHANNELS 3 Zrotation Xrotation Yrotation
                                        End Site
                                        {
                                            OFFSET   1.818440   0.000000   0.000000
                                        }
                                    }
                                }
                            }
                        }
                    }
                }
            }
            JOINT RightCollar
            {
                OFFSET  -3.911900  19.017000  -0.467063
                CHANNELS 3 Zrotation Xrotation Yrotation
                JOINT RightShoulder
                {
                    OFFSET -10.383700   0.000019   0.000000
                    CHANNELS 3 Zrotation Xrotation Yrotation
                    JOINT RightElbow
                    {
                        OFFSET -26.662100   0.001175   0.000102
                        CHANNELS 3 Zrotation Xrotation Yrotation
                        JOINT RightWrist
                        {
                            OFFSET -28.869000   0.000016  -0.000079
                            CHANNELS 3 Zrotation Xrotation Yrotation
                            JOINT RightFinger0
                            {
                                OFFSET  -2.044660  -2.323490   3.252850
                                CHANNELS 3 Zrotation Xrotation Yrotation
                                JOINT RightFinger01
                                {
                                    OFFSET  -3.088140   0.000000   0.000000
                                    CHANNELS 3 Zrotation Xrotation Yrotation
                                    JOINT RightFinger02
                                    {
                                        OFFSET  -2.639460   0.000000   0.000000
                                        CHANNELS 3 Zrotation Xrotation Yrotation
                                        End Site
                                        {
                                            OFFSET  -2.582190   0.000000   0.000000
                                        }
                                    }
                                }
                            }
                            JOINT RightFinger1
                            {
                                OFFSET  -8.364480   0.000000   3.252850
                                CHANNELS 3 Zrotation Xrotation Yrotation
                                JOINT RightFinger11
                                {
                                    OFFSET  -4.646930   0.000000   0.000000
                                    CHANNELS 3 Zrotation Xrotation Yrotation
                                    JOINT RightFinger12
                                    {
                                        OFFSET  -2.323470   0.000000   0.000000
                                        CHANNELS 3 Zrotation Xrotation Yrotation
                                        End Site
                                        {
                                            OFFSET  -2.273050   0.000000   0.000000
                                        }
                                    }
                                }
                            }
                            JOINT RightFinger2
                            {
                                OFFSET  -8.364480   0.000000   1.078090
                                CHANNELS 3 Zrotation Xrotation Yrotation
                                JOINT RightFinger21
                                {
                                    OFFSET  -5.111620   0.000000   0.000000
                                    CHANNELS 3 Zrotation Xrotation Yrotation
                                    JOINT RightFinger22
                                    {
                                        OFFSET  -2.788160   0.000000   0.000000
                                        CHANNELS 3 Zrotation Xrotation Yrotation
                                        End Site
                                        {
                                            OFFSET  -2.727660   0.000000   0.000000
                                        }
                                    }
                                }
                            }
                            JOINT RightFinger3
                            {
                                OFFSET  -7.899780   0.000000  -1.078090
                                CHANNELS 3 Zrotation Xrotation Yrotation
                                JOINT RightFinger31
                                {
                                    OFFSET  -4.646930   0.000000   0.000000
                                    CHANNELS 3 Zrotation Xrotation Yrotation
                                    JOINT RightFinger32
                                    {
                                        OFFSET  -2.323470   0.000000   0.000000
                                        CHANNELS 3 Zrotation Xrotation Yrotation
                                        End Site
                                        {
                                            OFFSET  -2.273050   0.000000   0.000000
                                        }
                                    }
                                }
                            }
                            JOINT RightFinger4
                            {
                                OFFSET  -7.435090   0.000000  -3.252850
                                CHANNELS 3 Zrotation Xrotation Yrotation
                                JOINT RightFinger41
                                {
                                    OFFSET  -3.717550   0.000000   0.000000
                                    CHANNELS 3 Zrotation Xrotation Yrotation
                                    JOINT RightFinger42
                                    {
                                        OFFSET  -1.858770   0.000000   0.000000
                                        CHANNELS 3 Zrotation Xrotation Yrotation
                                        End Site
                                        {
                                            OFFSET  -1.818440   0.000000   0.000000
                                        }
                                    }
                                }
                            }
                        }
                    }
                }
            }
        }
    }
    JOINT LeftHip
    {
        OFFSET   9.783040   0.000000   0.000000
        CHANNELS 3 Zrotation Xrotation Yrotation
        JOINT LeftKnee
        {
            OFFSET   0.000032 -41.789100  -0.002222
            CHANNELS 3 Zrotation Xrotation Yrotation
            JOINT LeftAnkle
            {
                OFFSET   0.000087 -41.133200  -0.000135
                CHANNELS 3 Zrotation Xrotation Yrotation
                JOINT LeftToe
                {
                    OFFSET   0.000000  -6.358960  14.674500
                    CHANNELS 3 Zrotation Xrotation Yrotation
                    End Site
                    {
                        OFFSET   0.000000   0.000000   3.913200
                    }
                }
            }
        }
    }
    JOINT RightHip
    {
        OFFSET  -9.783040   0.000000   0.000000
        CHANNELS 3 Zrotation Xrotation Yrotation
        JOINT RightKnee
        {
            OFFSET   0.000047 -41.789100  -0.000896
            CHANNELS 3 Zrotation Xrotation Yrotation
            JOINT RightAnkle
            {
                OFFSET  -0.000117 -41.133300  -0.000248
                CHANNELS 3 Zrotation Xrotation Yrotation
                JOINT RightToe
                {
                    OFFSET   0.000000  -6.358970  14.674500
                    CHANNELS 3 Zrotation Xrotation Yrotation
                    End Site
                    {
                        OFFSET   0.000000   0.000000   3.913200
                    }
                }
            }
        }
    }
}
MOTION
Frames: 4
Frame Time:   0.016667
  0.527995  89.511600   0.349651  -2.190520  -4.271010   2.298740   1.510970   4.232330  -0.573068   3.077060   8.447790  -1.263380   0.484542  -2.242220   0.018369   0.799230  -4.545490   3.107850  -7.202620   2.921950  -3.106400 -66.289400  15.677900  -5.870360  -4.490290  -6.416160 -16.656500   3.347110 -10.338900  12.024500  44.385300  31.178800 -64.484500 -20.907000   0.001414   0.003246  -5.453520   0.010851  -0.006426 -34.109500   4.651420  -6.827860 -28.134600   0.008754  -0.012045 -19.694200  -0.004813  -0.009519 -28.605900   1.530970  -2.803590 -38.213900  -0.010960  -0.000088 -25.450400  -0.007614  -0.000000 -28.707900  -0.207925   0.379550 -39.301700  -0.012408  -0.000540 -26.174900  -0.008808  -0.000338 -40.293700  -1.149140   1.356930 -60.460700  -0.008156  -0.011762 -40.266800  -0.009361   0.000512   8.750220  -0.244582  10.254100  68.324700  16.468900   1.867690  -1.139860   0.692110  12.504100 -15.676000 -15.131000  -1.921260 -40.297900  40.936000  78.085500  33.727900   0.008688  -0.005746  11.864000   0.001506  -0.007835  30.239800   5.018340   8.539880  25.056000   0.004929  -0.002653  17.541800  -0.006264   0.000170  28.018800   3.172310   5.940820  33.225500   0.001764  -0.009522  22.128200  -0.000349  -0.004133  28.202400   1.755320   3.270120  33.769700   0.000548  -0.002409  22.504800   0.004227  -0.006927  34.184300   0.412988   0.625013  51.275600  -0.002396  -0.003942  34.152400   0.000093  -0.005193   3.109000   6.645120   4.621240   0.832445   0.506753  11.499800  -3.488020  -2.666630   2.730100  -0.000000   0.000000  -0.000000   0.734188   1.248480  -8.617900   1.799260   5.506710  -6.032190  -5.244500  -1.962630  -2.055820   0.000000   0.000000   0.000000
  0.528894  89.511700   0.340336  -2.189540  -4.283750   2.312580   1.517460   4.239270  -0.571053   3.090010   8.461650  -1.259830   0.469551  -2.248030   0.018120   0.774564  -4.557360   3.071390  -7.191570   2.931430  -3.094040 -66.359200  15.639200  -5.932460  -4.443210  -6.223230 -16.695000   3.348050 -10.279200  12.009200  44.348200  31.179700 -64.337800 -21.007000   0.001325   0.003279  -5.503520   0.010911  -0.006458 -34.083200   4.578200  -6.727990 -28.106300   0.008816  -0.012104 -19.674400  -0.004841  -0.009567 -28.612400   1.463290  -2.679620 -38.189600  -0.011015  -0.000025 -25.434200  -0.007659   0.000037 -28.706800  -0.278659   0.508753 -39.282200  -0.012470  -0.000455 -26.162000  -0.008865  -0.000278 -40.273700  -1.149140   1.356930 -60.430800  -0.008189  -0.011821 -40.246900  -0.009395   0.000545   8.746060  -0.244313  10.230400  68.326600  16.464800   1.860950  -1.135310   0.686368  12.491600 -15.668800 -15.139800  -1.919820 -40.295900  40.934500  78.079900  33.725100   0.008681  -0.005728  11.862600   0.001512  -0.007841  30.240400   5.022340   8.543780  25.055800   0.004924  -0.002652  17.541600  -0.006266   0.000166  28.018200   3.174420   5.943860  33.229200   0.001759  -0.009522  22.130700  -0.000351  -0.004134  28.201800   1.759310   3.277460  33.774500   0.000547  -0.002407  22.504700   0.004230  -0.006928  34.184300   0.412989   0.625018  51.276200  -0.002395  -0.003946  34.152400   0.000091  -0.005189   3.107490   6.662140   4.621910   0.830579   0.475701  11.490400  -3.484220  -2.639830   2.730630   0.000000   0.000000   0.000000   0.742369   1.245130  -8.596590   1.788470   5.518600  -6.061410  -5.243600  -1.962560  -2.059580  -0.000000   0.000000   0.000000
  0.531112  89.512200   0.325502  -2.187940  -4.305650   2.335070   1.528190   4.250930  -0.568646   3.111600   8.484900  -1.256320   0.442658  -2.259290   0.017474   0.730286  -4.580380   3.017250  -7.176650   2.946070  -3.074890 -66.479100  15.599600  -6.027550  -4.372340  -5.929530 -16.792100   3.358400 -10.163400  11.991800  44.288300  31.132700 -64.131700 -21.107000   0.001179   0.003349  -5.553520   0.011033  -0.006524 -34.056700   4.504940  -6.628150 -28.078000   0.008958  -0.012229 -19.654600  -0.004906  -0.009668 -28.618600   1.395580  -2.555670 -38.149900  -0.011129   0.000079 -25.407800  -0.007765   0.000102 -28.705300  -0.349389   0.637959 -39.261900  -0.012599  -0.000313 -26.148400  -0.008996  -0.000176 -40.253700  -1.149140   1.356930 -60.401000  -0.008267  -0.011946 -40.227000  -0.009474   0.000631   8.738940  -0.244052  10.195800  68.330700  16.455400   1.846440  -1.126430   0.676884  12.471600 -15.656600 -15.153000  -1.912870 -40.294000  40.933100  78.074200  33.719400   0.008673  -0.005709  11.859700   0.001517  -0.007850  30.242100   5.030590   8.553630  25.055600   0.004917  -0.002647  17.541400  -0.006268   0.000162  28.017100   3.179190   5.951560  33.236500   0.001749  -0.009522  22.135500  -0.000357  -0.004138  28.200700   1.767670   3.292920  33.782500   0.000546  -0.002401  22.504500   0.004236  -0.006928  34.184300   0.412991   0.625027  51.279900  -0.002394  -0.003949  34.152400   0.000087  -0.005183   3.105630   6.679170   4.622570   0.828755   0.444657  11.474300  -3.480420  -2.613030   2.731160  -0.000000   0.000000   0.000000   0.750554   1.241780  -8.575280   1.776020   5.530390  -6.101630  -5.241870  -1.962150  -2.065040  -0.000000   0.000000   0.000000
  0.534497  89.513400   0.315071  -2.186800  -4.324350   2.351570   1.536650   4.259950  -0.568190   3.128790   8.502860  -1.256460   0.416876  -2.270840   0.016417   0.687654  -4.604150   2.984420  -7.172100   2.956350  -3.062980 -66.583100  15.639200  -6.097720  -4.299380  -5.746000 -16.910000   3.378160 -10.034000  12.007600  44.243900  30.977400 -64.061600 -21.005700   0.001037   0.003440  -5.502850   0.011195  -0.006605 -34.074900   4.536640  -6.667140 -28.095600   0.009163  -0.012401 -19.666900  -0.004999  -0.009804 -28.617200   1.432960  -2.624390 -38.122500  -0.011287   0.000182 -25.389500  -0.007919   0.000176 -28.706100  -0.303572   0.554408 -39.261400  -0.012776  -0.000172 -26.148000  -0.009190  -0.000067 -40.257000  -1.152250   1.360080 -60.406200  -0.008380  -0.012119 -40.230500  -0.009591   0.000762   8.733390  -0.245173  10.175900  68.336700  16.438300   1.827010  -1.115720   0.667653  12.456900 -15.645700 -15.159800  -1.897310 -40.294600  40.939000  78.098600  33.712400   0.008681  -0.005722  11.856100   0.001511  -0.007858  30.244300   5.041200   8.570240  25.056200   0.004915  -0.002637  17.541400  -0.006265   0.000162  28.015600   3.185930   5.963910  33.243700   0.001743  -0.009524  22.140300  -0.000364  -0.004143  28.199400   1.778880   3.313760  33.787900   0.000545  -0.002395  22.504900   0.004237  -0.006932  34.191400   0.412995   0.625039  51.292000  -0.002394  -0.003948  34.159500   0.000084  -0.005181   3.103460   6.669520   4.620940   0.827380   0.479339  11.460300  -3.486750  -2.621040   2.730430   0.000000   0.000000   0.000000   0.751000   1.265090  -8.579270   1.773190   5.517000  -6.113210  -5.240080  -1.960610  -2.067450  -0.000000   0.000000   0.000000
